<svg width="33" height="33" viewBox="0 0 33 33" fill="none" xmlns="http://www.w3.org/2000/svg">
<circle cx="16.5" cy="16.5" r="16.5" fill="#292B33"/>
<path d="M25.0235 14.7441H18.2559V7.97647C18.2559 7.66765 17.8382 7 17 7C16.1618 7 15.7441 7.66765 15.7441 7.97647V14.7441H8.97647C8.66765 14.7441 8 15.1618 8 16C8 16.8382 8.66765 17.2559 8.97647 17.2559H15.7441V24.0235C15.7441 24.3324 16.1618 25 17 25C17.8382 25 18.2559 24.3324 18.2559 24.0235V17.2559H25.0235C25.3324 17.2559 26 16.8382 26 16C26 15.1618 25.3324 14.7441 25.0235 14.7441Z" fill="white"/>
</svg>
